<?xml version="1.0" encoding="UTF-8" standalone="no"?>
<!-- Created with Inkscape (http://www.inkscape.org/) -->

<svg
   version="1.1"
   id="svg1079"
   width="1600"
   height="1600"
   viewBox="0 0 1600 1600"
   sodipodi:docname="river-mountains-vector-pdv.svg"
   inkscape:version="1.2 (dc2aedaf03, 2022-05-15)"
   xmlns:inkscape="http://www.inkscape.org/namespaces/inkscape"
   xmlns:sodipodi="http://sodipodi.sourceforge.net/DTD/sodipodi-0.dtd"
   xmlns="http://www.w3.org/2000/svg"
   xmlns:svg="http://www.w3.org/2000/svg">
  <defs
     id="defs1083">
    <clipPath
       clipPathUnits="userSpaceOnUse"
       id="clipPath1135">
      <path
         d="M 0,1200 H 1200 V 0 H 0 Z"
         id="path1133" />
    </clipPath>
  </defs>
  <sodipodi:namedview
     id="namedview1081"
     pagecolor="#ffffff"
     bordercolor="#000000"
     borderopacity="0.25"
     inkscape:showpageshadow="2"
     inkscape:pageopacity="0.0"
     inkscape:pagecheckerboard="0"
     inkscape:deskcolor="#d1d1d1"
     showgrid="false"
     inkscape:zoom="0.523125"
     inkscape:cx="800"
     inkscape:cy="800.95579"
     inkscape:window-width="1920"
     inkscape:window-height="1017"
     inkscape:window-x="-8"
     inkscape:window-y="-8"
     inkscape:window-maximized="1"
     inkscape:current-layer="g1087">
    <inkscape:page
       x="0"
       y="0"
       id="page1085"
       width="1600"
       height="1600" />
  </sodipodi:namedview>
  <g
     id="g1087"
     inkscape:groupmode="layer"
     inkscape:label="Page 1"
     transform="matrix(1.3333333,0,0,-1.3333333,0,1600)">
    <path
       d="M 0,0 H 1199.747 V 1199 H 0 Z"
       style="fill:#ffcab8;fill-opacity:1;fill-rule:nonzero;stroke:none"
       id="path1089" />
    <path
       d="M 0,0 H 1199.747 V 500.914 H 0 Z"
       style="fill:#ffddd1;fill-opacity:1;fill-rule:nonzero;stroke:none"
       id="path1091" />
    <g
       id="g1093"
       transform="translate(717.2811,789.2244)">
      <path
         d="m 0,0 h -36.878 l -63.278,-32.684 -43.999,-41.068 -41.488,-5.866 -38.971,32.687 -33.524,15.084 h -36.878 l -50.287,-26.821 -36.877,-36.455 -41.906,7.961 -18.438,21.791 h -31.85 l -55.317,-38.553 h -20.113 l -48.612,-50.287 -38.553,16.762 -30.171,1.675 -50.141,-37.799 V -288.31 H 482.466 v 154.212 h -18.149 l -77.105,21.792 -87.165,43.582 H 263.169 L 217.911,-35.2 137.453,-20.112 98.899,18.44 40.231,30.174 Z"
         style="fill:#fcae94;fill-opacity:1;fill-rule:nonzero;stroke:none"
         id="path1095" />
    </g>
    <g
       id="g1097"
       transform="translate(0,500.9139)">
      <path
         d="m 0,0 v -51.482 l 50.141,-16.959 30.171,0.754 38.553,7.519 48.612,-22.563 h 20.113 l 55.317,-17.297 h 31.85 l 18.438,9.778 41.906,3.572 36.877,-16.356 50.288,-12.035 h 36.877 l 33.525,6.769 38.97,14.668 41.488,-2.634 43.999,-18.426 63.279,-14.664 h 36.877 l 40.231,-13.539 58.668,5.263 38.554,17.3 80.458,6.766 45.258,15.044 h 36.878 l 87.165,19.553 77.105,9.776 h 18.149 V 0 Z"
         style="fill:#ffd4c4;fill-opacity:1;fill-rule:nonzero;stroke:none"
         id="path1099" />
    </g>
    <g
       id="g1101"
       transform="translate(62.2953,902.4471)">
      <path
         d="M 0,0 -19.275,-25.684 -44.419,-46.589 V -78.847 L -62.295,-91.29 v -335.8 h 534.993 l -36.04,5.974 -15.087,12.239 -44.419,12.85 -14.25,21.501 -56.152,22.699 -18.438,42.411 -28.496,5.975 -18.44,22.699 -15.922,41.813 -18.438,26.878 -37.714,44.204 -5.869,38.227 -20.115,30.464 -33.525,40.618 -7.544,41.218 L 65.372,1.194 28.497,5.379 Z m 987.303,-103.576 -14.246,-17.602 -57.834,-24.303 -19.276,-36.04 -27.658,-19.278 -13.41,-34.363 -36.877,-41.068 -6.703,-34.362 -26.822,-6.704 -10.057,-24.308 -28.496,-1.675 -20.116,-44.422 -20.112,-4.19 -15.925,-35.199 h 447.681 v 227.966 l -34.488,40.231 -30.175,8.381 -25.143,28.496 -31.01,18.44 z"
         style="fill:#ff9470;fill-opacity:1;fill-rule:nonzero;stroke:none"
         id="path1103" />
    </g>
    <g
       id="g1105"
       transform="translate(752.0661,475.3566)">
      <path
         d="m 0,0 15.925,-14.258 20.112,-1.697 20.116,-17.993 28.496,-0.68 10.057,-9.843 26.822,-2.718 6.703,-13.916 36.878,-16.634 13.409,-13.92 27.659,-7.808 19.275,-14.595 57.834,-9.847 14.246,-7.129 h 29.334 l 31.009,7.47 25.143,11.541 30.175,3.393 34.488,16.296 V 0 Z m -752.066,0 v -136.013 l 17.877,-5.043 v -13.064 l 25.144,-8.467 19.274,-10.406 28.497,-2.177 36.875,1.694 36.877,7.501 7.544,16.694 33.525,16.454 20.115,12.337 5.869,15.485 37.715,17.902 18.437,10.892 15.923,16.934 18.439,9.194 28.497,2.42 18.437,17.177 56.153,9.195 14.249,8.708 44.419,5.205 15.088,4.961 36.039,2.417 z"
         style="fill:#ffbfa8;fill-opacity:1;fill-rule:nonzero;stroke:none"
         id="path1107" />
    </g>
    <g
       id="g1109"
       transform="translate(0,407.4912)">
      <path
         d="m 0,0 h 254.225 l -30.169,36.851 -18.441,56.572 -36.878,64.117 8.382,63.696 -28.494,68.728 -56.992,62.021 -20.116,75.43 -45.259,70.399 -3.35,63.7 L 0,583.998 Z m 1179.506,546.426 -13.83,-22.628 -6.283,-49.452 -31.849,-30.171 -1.678,-38.553 -31.429,-23.463 -33.528,-90.941 -47.349,-14.664 -16.762,-70.405 -48.612,-28.494 -25.143,-60.346 -56.99,-8.378 L 836.716,33.238 782.241,0 h 417.506 v 573.245 z"
         style="fill:#ff6c3b;fill-opacity:1;fill-rule:nonzero;stroke:none"
         id="path1111" />
    </g>
    <g
       id="g1113"
       transform="translate(782.2413,407.4912)">
      <path
         d="m 0,0 54.474,-13.385 29.338,-30.477 56.989,-3.373 25.144,-24.297 48.611,-11.475 16.763,-28.346 47.349,-5.904 33.528,-36.619 31.428,-9.447 1.679,-15.521 31.849,-12.149 6.283,-19.911 13.829,-9.113 20.242,-10.799 0,230.816 z m -782.241,0 v -235.145 l 22.907,9.055 3.35,25.646 45.259,28.346 20.116,30.373 56.993,24.972 28.494,27.673 -8.382,25.645 36.878,25.82 18.441,22.776 L -528.016,0 Z"
         style="fill:#ffa98a;fill-opacity:1;fill-rule:nonzero;stroke:none"
         id="path1115" />
    </g>
    <g
       id="g1117"
       transform="translate(1162.9952,660.3858)">
      <path
         d="m 0,0 -17.439,-31.664 -33.525,-35.201 -26.818,-63.698 -53.641,-28.909 h -60.345 l -13.409,-36.454 -35.201,-12.58 -23.883,-45.947 -14.673,-70.552 -48.609,-30.172 -28.496,-50.287 -25.286,-19.274 H 36.752 V 16.948 Z m -1162.995,-424.738 h 363.594 l -28.494,60.345 -38.556,11.734 -35.199,30.173 -74.167,19.067 -48.2,59.716 -51.122,35.822 -19.278,62.237 -68.578,15.283 z"
         style="fill:#f73e00;fill-opacity:1;fill-rule:nonzero;stroke:none"
         id="path1119" />
    </g>
    <g
       id="g1121"
       transform="translate(781.6707,235.6479)">
      <path
         d="m 0,0 25.285,-8.851 28.497,-23.092 48.608,-13.854 14.674,-32.4 23.882,-21.098 35.201,-5.779 13.409,-16.738 h 60.345 l 53.641,-13.277 26.818,-29.25 33.525,-16.165 17.44,-14.54 36.751,-7.783 0,202.827 z m -781.671,0 v -135.181 l 68.578,7.018 19.278,28.582 51.122,16.448 48.201,27.421 74.167,8.758 35.199,13.854 38.556,5.389 L -418.076,0 Z"
         style="fill:#ff8f66;fill-opacity:1;fill-rule:nonzero;stroke:none"
         id="path1123" />
    </g>
    <g
       id="g1125"
       transform="translate(1148.0679,347.112)">
      <path
         d="m 0,0 -55.314,-16.763 -55.52,-37.163 -56.788,-14.798 -36.879,-33.528 -31.846,-65.37 -58.669,-28.498 -56.992,-8.381 -40.231,-21.791 -16.76,-40.23 -48.612,-38.553 -40.234,-42.037 H 51.679 V 35.906 Z m -1148.068,-347.112 h 586.271 l -37.456,59.639 -51.962,13.41 -46.937,36.878 h -62.019 l -48.611,48.609 -70.403,-1.675 -82.134,62.021 -41.905,30.171 -26.84,52.382 -41.459,-0.157 -40.656,58.405 -35.889,22.635 z"
         style="fill:#cf3400;fill-opacity:1;fill-rule:nonzero;stroke:none"
         id="path1127" />
    </g>
    <g
       id="g1129">
      <g
         id="g1131"
         clip-path="url(#clipPath1135)">
        <g
           id="g1137"
           transform="translate(1030.7344,925.4131)">
          <path
             d="M 0,0 C 62.319,0 113.146,50.827 113.146,113.145 113.146,175.463 62.319,226.29 0,226.29 -62.318,226.29 -113.146,175.463 -113.146,113.145 -113.146,50.827 -62.318,0 0,0"
             style="fill:#fff8f5;fill-opacity:1;fill-rule:evenodd;stroke:none"
             id="path1139" />
        </g>
        <g
           id="g1141"
           transform="translate(659.8711,888.1177)">
          <path
             d="m 0,0 h 261.491 l 8.381,11.317 -1.255,10.476 -18.44,21.788 -2.933,14.25 -13.829,8.384 -20.533,0.834 L 207.014,54.898 182.29,49.87 176.422,33.945 147.088,23.469 137.031,28.917 108.955,35.2 96.801,25.144 79.201,17.183 64.533,23.048 50.287,21.373 24.303,4.611 Z m -397.271,-83.391 h 176.005 l -0.838,11.734 -15.085,17.6 -19.277,-4.191 -13.412,-9.219 -33.525,5.029 -10.894,20.953 -23.465,7.543 h -28.5 l -9.218,-13.409 -7.544,-21.794 z m -207.851,278.257 52.8,17.6 12.572,25.144 20.117,28.496 62.859,15.086 41.066,-13.409 38.555,17.6 51.122,1.676 18.44,-20.953 36.878,-14.248 9.219,-24.306 -20.953,-32.686 z M -337.342,81.717 H 85.069 l -28.497,21.79 v 28.495 l -40.23,35.202 -20.113,30.171 -30.174,-1.675 -35.2,-31.848 -13.412,-35.202 -45.256,-10.059 -18.437,16.764 -28.5,26.82 -36.875,-3.353 -28.496,-38.552 z"
             style="fill:#ffe8e0;fill-opacity:1;fill-rule:evenodd;stroke:none"
             id="path1143" />
        </g>
        <g
           id="g1145"
           transform="translate(458.3027,69.7012)">
          <path
             d="M 0,0 V 264.007 L -22.628,180.195 -8.381,206.177 -9.221,4.191 Z"
             style="fill:#cf3400;fill-opacity:1;fill-rule:evenodd;stroke:none"
             id="path1147" />
        </g>
        <g
           id="g1149"
           transform="translate(452.8545,220.9824)">
          <path
             d="M 0,0 19.275,38.974 33.107,-21.79 17.6,20.953 2.933,-14.667 Z"
             style="fill:#cf3400;fill-opacity:1;fill-rule:evenodd;stroke:none"
             id="path1151" />
        </g>
        <g
           id="g1153"
           transform="translate(453.9595,165.3154)">
          <path
             d="m 0,0 -10.007,20.228 -7.176,-31.537 8.046,22.184 7.615,-18.486 z"
             style="fill:#cf3400;fill-opacity:1;fill-rule:evenodd;stroke:none"
             id="path1155" />
        </g>
        <g
           id="g1157"
           transform="translate(492.4551,54.1211)">
          <path
             d="M 0,0 2.248,218.513 37.925,143.895 8.703,181.269 10.659,2.81 Z"
             style="fill:#cf3400;fill-opacity:1;fill-rule:evenodd;stroke:none"
             id="path1159" />
        </g>
        <g
           id="g1161"
           transform="translate(497.4668,232.9648)">
          <path
             d="m 0,0 -12.073,19.068 -3.83,-32.117 5.677,22.906 9.508,-17.586 z"
             style="fill:#cf3400;fill-opacity:1;fill-rule:evenodd;stroke:none"
             id="path1163" />
        </g>
        <g
           id="g1165"
           transform="translate(496.0781,159.2129)">
          <path
             d="M 0,0 15.224,30.475 23.638,-13.652 13.486,16.942 1.732,-10.684 Z"
             style="fill:#cf3400;fill-opacity:1;fill-rule:evenodd;stroke:none"
             id="path1167" />
        </g>
        <g
           id="g1169"
           transform="translate(541.2578,33.6533)">
          <path
             d="M 0,0 1.795,187.046 63.601,111.604 9.852,162.118 16.729,-2.849 Z"
             style="fill:#cf3400;fill-opacity:1;fill-rule:evenodd;stroke:none"
             id="path1171" />
        </g>
        <g
           id="g1173"
           transform="translate(551.3579,102.9941)">
          <path
             d="M 0,0 12.763,31.585 24.647,-11.736 12.102,17.958 2.575,-10.512 Z"
             style="fill:#cf3400;fill-opacity:1;fill-rule:evenodd;stroke:none"
             id="path1175" />
        </g>
        <g
           id="g1177"
           transform="translate(546.5449,177.7051)">
          <path
             d="m 0,0 -16.293,26.166 -6.378,-46.724 8.67,33.651 12.754,-24.318 z"
             style="fill:#cf3400;fill-opacity:1;fill-rule:evenodd;stroke:none"
             id="path1179" />
        </g>
        <g
           id="g1181"
           transform="translate(407.1099,47.6709)">
          <path
             d="M 0,0 -1.037,266.212 21.744,178.88 7.508,206.853 9.131,3.077 Z"
             style="fill:#cf3400;fill-opacity:1;fill-rule:evenodd;stroke:none"
             id="path1183" />
        </g>
        <g
           id="g1185"
           transform="translate(411.9229,199.5361)">
          <path
             d="m 0,0 -19.281,41.701 -13.483,-59.55 15.216,41.17 14.694,-37.745 z"
             style="fill:#cf3400;fill-opacity:1;fill-rule:evenodd;stroke:none"
             id="path1187" />
        </g>
        <g
           id="g1189"
           transform="translate(411.0439,143.5439)">
          <path
             d="M 0,0 9.849,19.15 17.095,-13.546 9.022,9.827 1.542,-7.865 Z"
             style="fill:#cf3400;fill-opacity:1;fill-rule:evenodd;stroke:none"
             id="path1191" />
        </g>
        <g
           id="g1193"
           transform="translate(371.2744,90.2266)">
          <path
             d="M 0,0 1.793,187.043 63.598,111.603 9.852,162.114 16.727,-2.849 Z"
             style="fill:#cf3400;fill-opacity:1;fill-rule:evenodd;stroke:none"
             id="path1195" />
        </g>
        <g
           id="g1197"
           transform="translate(381.3716,159.5645)">
          <path
             d="M 0,0 12.766,31.585 24.647,-11.734 12.103,17.957 2.576,-10.512 Z"
             style="fill:#cf3400;fill-opacity:1;fill-rule:evenodd;stroke:none"
             id="path1199" />
        </g>
        <g
           id="g1201"
           transform="translate(376.5591,234.2744)">
          <path
             d="m 0,0 -16.293,26.17 -6.379,-46.727 8.671,33.65 12.754,-24.317 z"
             style="fill:#cf3400;fill-opacity:1;fill-rule:evenodd;stroke:none"
             id="path1203" />
        </g>
        <g
           id="g1205"
           transform="translate(754.0059,90.0459)">
          <path
             d="M 0,0 1.443,169.43 51.117,101.093 7.918,146.848 13.448,-2.581 Z"
             style="fill:#cf3400;fill-opacity:1;fill-rule:evenodd;stroke:none"
             id="path1207" />
        </g>
        <g
           id="g1209"
           transform="translate(762.126,152.8535)">
          <path
             d="M 0,0 10.258,28.61 19.807,-10.63 9.726,16.268 2.067,-9.521 Z"
             style="fill:#cf3400;fill-opacity:1;fill-rule:evenodd;stroke:none"
             id="path1211" />
        </g>
        <g
           id="g1213"
           transform="translate(758.2568,220.5303)">
          <path
             d="m 0,0 -13.096,23.702 -5.129,-42.325 6.971,30.479 10.25,-22.025 z"
             style="fill:#cf3400;fill-opacity:1;fill-rule:evenodd;stroke:none"
             id="path1215" />
        </g>
        <g
           id="g1217"
           transform="translate(577.3716,6.499)">
          <path
             d="M 0,0 2.202,173.31 -27.88,111.078 -3.678,143.197 -8.526,1.34 Z"
             style="fill:#cf3400;fill-opacity:1;fill-rule:evenodd;stroke:none"
             id="path1219" />
        </g>
        <g
           id="g1221"
           transform="translate(576.6211,148.0811)">
          <path
             d="M 0,0 10.062,16.148 12.556,-9.03 8.409,8.682 0.434,-6.078 Z"
             style="fill:#cf3400;fill-opacity:1;fill-rule:evenodd;stroke:none"
             id="path1223" />
        </g>
        <g
           id="g1225"
           transform="translate(576.3867,89.6367)">
          <path
             d="m 0,0 -11.693,22.923 -7.585,-35.74 8.736,25.143 8.949,-20.953 z"
             style="fill:#cf3400;fill-opacity:1;fill-rule:evenodd;stroke:none"
             id="path1227" />
        </g>
        <g
           id="g1229"
           transform="translate(522.4219,32.166)">
          <path
             d="M 0,0 -1.604,131.854 -23.13,82.374 -5.473,108.544 -6.461,0.396 Z"
             style="fill:#cf3400;fill-opacity:1;fill-rule:evenodd;stroke:none"
             id="path1231" />
        </g>
        <g
           id="g1233"
           transform="translate(519.189,139.6953)">
          <path
             d="M 0,0 7.292,13.005 9.647,-5.945 6.185,7.21 0.442,-4.587 Z"
             style="fill:#cf3400;fill-opacity:1;fill-rule:evenodd;stroke:none"
             id="path1235" />
        </g>
        <g
           id="g1237"
           transform="translate(520.1138,95.2676)">
          <path
             d="M 0,0 -9.254,16.566 -14.307,-11.142 -8.19,8.598 -1.04,-6.67 Z"
             style="fill:#cf3400;fill-opacity:1;fill-rule:evenodd;stroke:none"
             id="path1239" />
        </g>
        <g
           id="g1241"
           transform="translate(480.5488,44.9043)">
          <path
             d="M 0,0 -0.303,131.398 -22.401,84.216 -4.417,108.568 -6.482,1.016 Z"
             style="fill:#cf3400;fill-opacity:1;fill-rule:evenodd;stroke:none"
             id="path1243" />
        </g>
        <g
           id="g1245"
           transform="translate(478.3691,152.2471)">
          <path
             d="M 0,0 7.445,12.242 9.623,-6.848 6.277,6.581 0.398,-4.61 Z"
             style="fill:#cf3400;fill-opacity:1;fill-rule:evenodd;stroke:none"
             id="path1247" />
        </g>
        <g
           id="g1249"
           transform="translate(478.8545,107.9355)">
          <path
             d="M 0,0 -9.126,17.379 -14.468,-9.719 -8.133,9.344 -1.11,-6.54 Z"
             style="fill:#cf3400;fill-opacity:1;fill-rule:evenodd;stroke:none"
             id="path1251" />
        </g>
        <g
           id="g1253"
           transform="translate(424.4019,51.6816)">
          <path
             d="M 0,0 0.3,131.398 22.398,84.216 4.414,108.567 6.479,1.015 Z"
             style="fill:#cf3400;fill-opacity:1;fill-rule:evenodd;stroke:none"
             id="path1255" />
        </g>
        <g
           id="g1257"
           transform="translate(426.5786,159.0244)">
          <path
             d="M 0,0 -7.445,12.241 -9.622,-6.848 -6.275,6.58 -0.398,-4.608 Z"
             style="fill:#cf3400;fill-opacity:1;fill-rule:evenodd;stroke:none"
             id="path1259" />
        </g>
        <g
           id="g1261"
           transform="translate(426.0933,114.7119)">
          <path
             d="M 0,0 9.128,17.382 14.471,-9.718 8.135,9.345 1.11,-6.539 Z"
             style="fill:#cf3400;fill-opacity:1;fill-rule:evenodd;stroke:none"
             id="path1263" />
        </g>
        <g
           id="g1265"
           transform="translate(397.1631,94.4248)">
          <path
             d="M 0,0 0.3,131.397 22.398,84.216 4.414,108.568 6.479,1.015 Z"
             style="fill:#cf3400;fill-opacity:1;fill-rule:evenodd;stroke:none"
             id="path1267" />
        </g>
        <g
           id="g1269"
           transform="translate(399.3398,201.7676)">
          <path
             d="M 0,0 -7.445,12.242 -9.622,-6.845 -6.275,6.584 -0.398,-4.607 Z"
             style="fill:#cf3400;fill-opacity:1;fill-rule:evenodd;stroke:none"
             id="path1271" />
        </g>
        <g
           id="g1273"
           transform="translate(398.8545,157.458)">
          <path
             d="M 0,0 9.126,17.379 14.471,-9.718 8.135,9.342 1.11,-6.542 Z"
             style="fill:#cf3400;fill-opacity:1;fill-rule:evenodd;stroke:none"
             id="path1275" />
        </g>
        <g
           id="g1277"
           transform="translate(323.4072,101.9687)">
          <path
             d="M 0,0 0.303,131.397 22.402,84.215 4.417,108.567 6.482,1.015 Z"
             style="fill:#cf3400;fill-opacity:1;fill-rule:evenodd;stroke:none"
             id="path1279" />
        </g>
        <g
           id="g1281"
           transform="translate(325.5874,209.3115)">
          <path
             d="M 0,0 -7.445,12.241 -9.623,-6.848 -6.278,6.58 -0.398,-4.608 Z"
             style="fill:#cf3400;fill-opacity:1;fill-rule:evenodd;stroke:none"
             id="path1283" />
        </g>
        <g
           id="g1285"
           transform="translate(325.1016,164.999)">
          <path
             d="M 0,0 9.126,17.382 14.468,-9.718 8.133,9.345 1.11,-6.539 Z"
             style="fill:#cf3400;fill-opacity:1;fill-rule:evenodd;stroke:none"
             id="path1287" />
        </g>
        <g
           id="g1289"
           transform="translate(303.292,95.6719)">
          <path
             d="M 0,0 V 196.543 L -16.847,134.147 -6.239,153.491 -6.864,3.118 Z"
             style="fill:#cf3400;fill-opacity:1;fill-rule:evenodd;stroke:none"
             id="path1291" />
        </g>
        <g
           id="g1293"
           transform="translate(299.2354,208.2939)">
          <path
             d="M 0,0 14.351,29.015 24.647,-16.223 13.104,15.6 2.183,-10.919 Z"
             style="fill:#cf3400;fill-opacity:1;fill-rule:evenodd;stroke:none"
             id="path1295" />
        </g>
        <g
           id="g1297"
           transform="translate(300.0591,166.8545)">
          <path
             d="m 0,0 -7.448,15.058 -5.347,-23.48 5.991,16.517 5.669,-13.764 z"
             style="fill:#cf3400;fill-opacity:1;fill-rule:evenodd;stroke:none"
             id="path1299" />
        </g>
        <g
           id="g1301"
           transform="translate(795.9971,110.5215)">
          <path
             d="M 0,0 -1.037,266.211 21.746,178.88 7.508,206.852 9.131,3.075 Z"
             style="fill:#cf3400;fill-opacity:1;fill-rule:evenodd;stroke:none"
             id="path1303" />
        </g>
        <g
           id="g1305"
           transform="translate(800.8066,262.3867)">
          <path
             d="m 0,0 -19.277,41.701 -13.484,-59.55 15.216,41.17 14.694,-37.745 z"
             style="fill:#cf3400;fill-opacity:1;fill-rule:evenodd;stroke:none"
             id="path1307" />
        </g>
        <g
           id="g1309"
           transform="translate(799.9307,206.3945)">
          <path
             d="M 0,0 9.85,19.148 17.093,-13.545 9.022,9.827 1.542,-7.865 Z"
             style="fill:#cf3400;fill-opacity:1;fill-rule:evenodd;stroke:none"
             id="path1311" />
        </g>
        <g
           id="g1313"
           transform="translate(785.6953,88.2676)">
          <path
             d="M 0,0 -0.301,131.397 -22.399,84.215 -4.415,108.567 -6.48,1.015 Z"
             style="fill:#cf3400;fill-opacity:1;fill-rule:evenodd;stroke:none"
             id="path1315" />
        </g>
        <g
           id="g1317"
           transform="translate(783.5176,195.6104)">
          <path
             d="M 0,0 7.445,12.241 9.623,-6.848 6.277,6.583 0.398,-4.608 Z"
             style="fill:#cf3400;fill-opacity:1;fill-rule:evenodd;stroke:none"
             id="path1319" />
        </g>
        <g
           id="g1321"
           transform="translate(784.0029,151.2979)">
          <path
             d="m 0,0 -9.126,17.382 -5.342,-27.097 6.335,19.06 7.026,-15.884 z"
             style="fill:#cf3400;fill-opacity:1;fill-rule:evenodd;stroke:none"
             id="path1323" />
        </g>
        <g
           id="g1325"
           transform="translate(712.1191,15.0957)">
          <path
             d="M 0,0 -0.303,131.397 -22.401,84.219 -4.417,108.568 -6.479,1.015 Z"
             style="fill:#cf3400;fill-opacity:1;fill-rule:evenodd;stroke:none"
             id="path1327" />
        </g>
        <g
           id="g1329"
           transform="translate(709.9395,122.4385)">
          <path
             d="M 0,0 7.448,12.244 9.625,-6.845 6.278,6.583 0.398,-4.608 Z"
             style="fill:#cf3400;fill-opacity:1;fill-rule:evenodd;stroke:none"
             id="path1331" />
        </g>
        <g
           id="g1333"
           transform="translate(710.4258,78.1289)">
          <path
             d="M 0,0 -9.124,17.379 -14.469,-9.718 -8.133,9.345 -1.108,-6.539 Z"
             style="fill:#cf3400;fill-opacity:1;fill-rule:evenodd;stroke:none"
             id="path1335" />
        </g>
        <g
           id="g1337"
           transform="translate(215.2925,149.7402)">
          <path
             d="M 0,0 0.3,131.397 22.399,84.216 4.415,108.567 6.477,1.015 Z"
             style="fill:#cf3400;fill-opacity:1;fill-rule:evenodd;stroke:none"
             id="path1339" />
        </g>
        <g
           id="g1341"
           transform="translate(217.4697,257.083)">
          <path
             d="M 0,0 -7.448,12.241 -9.626,-6.845 -6.278,6.583 -0.398,-4.608 Z"
             style="fill:#cf3400;fill-opacity:1;fill-rule:evenodd;stroke:none"
             id="path1343" />
        </g>
        <g
           id="g1345"
           transform="translate(216.9839,212.7734)">
          <path
             d="M 0,0 9.123,17.379 14.468,-9.718 8.133,9.345 1.108,-6.542 Z"
             style="fill:#cf3400;fill-opacity:1;fill-rule:evenodd;stroke:none"
             id="path1347" />
        </g>
        <g
           id="g1349"
           transform="translate(156.938,210.3672)">
          <path
             d="M 0,0 -0.3,131.397 -22.399,84.216 -4.414,108.567 -6.48,1.015 Z"
             style="fill:#cf3400;fill-opacity:1;fill-rule:evenodd;stroke:none"
             id="path1351" />
        </g>
        <g
           id="g1353"
           transform="translate(154.7607,317.71)">
          <path
             d="M 0,0 7.446,12.241 9.623,-6.845 6.278,6.583 0.398,-4.608 Z"
             style="fill:#cf3400;fill-opacity:1;fill-rule:evenodd;stroke:none"
             id="path1355" />
        </g>
        <g
           id="g1357"
           transform="translate(155.2466,273.4004)">
          <path
             d="M 0,0 -9.126,17.379 -14.468,-9.718 -8.133,9.342 -1.11,-6.542 Z"
             style="fill:#cf3400;fill-opacity:1;fill-rule:evenodd;stroke:none"
             id="path1359" />
        </g>
        <g
           id="g1361"
           transform="translate(190.0371,110.5293)">
          <path
             d="M 0,0 -1.034,266.212 21.747,178.881 7.505,206.854 9.131,3.078 Z"
             style="fill:#cf3400;fill-opacity:1;fill-rule:evenodd;stroke:none"
             id="path1363" />
        </g>
        <g
           id="g1365"
           transform="translate(194.8472,262.3945)">
          <path
             d="m 0,0 -19.278,41.699 -13.483,-59.547 15.219,41.169 14.688,-37.745 z"
             style="fill:#cf3400;fill-opacity:1;fill-rule:evenodd;stroke:none"
             id="path1367" />
        </g>
        <g
           id="g1369"
           transform="translate(193.9741,206.4033)">
          <path
             d="M 0,0 9.843,19.149 17.09,-13.546 9.02,9.827 1.539,-7.866 Z"
             style="fill:#cf3400;fill-opacity:1;fill-rule:evenodd;stroke:none"
             id="path1371" />
        </g>
        <g
           id="g1373"
           transform="translate(89.9927,245.2861)">
          <path
             d="M 0,0 0.303,131.397 22.401,84.216 4.417,108.567 6.479,1.015 Z"
             style="fill:#cf3400;fill-opacity:1;fill-rule:evenodd;stroke:none"
             id="path1375" />
        </g>
        <g
           id="g1377"
           transform="translate(92.1724,352.6289)">
          <path
             d="M 0,0 -7.448,12.244 -9.626,-6.848 -6.278,6.58 -0.398,-4.608 Z"
             style="fill:#cf3400;fill-opacity:1;fill-rule:evenodd;stroke:none"
             id="path1379" />
        </g>
        <g
           id="g1381"
           transform="translate(91.6865,308.3164)">
          <path
             d="M 0,0 9.124,17.379 14.465,-9.718 8.13,9.348 1.108,-6.539 Z"
             style="fill:#cf3400;fill-opacity:1;fill-rule:evenodd;stroke:none"
             id="path1383" />
        </g>
        <g
           id="g1385"
           transform="translate(35.6948,275.4492)">
          <path
             d="M 0,0 0.3,131.398 22.399,84.216 4.415,108.568 6.479,1.016 Z"
             style="fill:#cf3400;fill-opacity:1;fill-rule:evenodd;stroke:none"
             id="path1387" />
        </g>
        <g
           id="g1389"
           transform="translate(37.8721,382.792)">
          <path
             d="M 0,0 -7.445,12.245 -9.623,-6.848 -6.278,6.581 -0.398,-4.607 Z"
             style="fill:#cf3400;fill-opacity:1;fill-rule:evenodd;stroke:none"
             id="path1391" />
        </g>
        <g
           id="g1393"
           transform="translate(37.3862,338.4805)">
          <path
             d="M 0,0 9.126,17.381 14.468,-9.719 8.133,9.347 1.111,-6.54 Z"
             style="fill:#cf3400;fill-opacity:1;fill-rule:evenodd;stroke:none"
             id="path1395" />
        </g>
        <g
           id="g1397"
           transform="translate(836.9971,105.6133)">
          <path
             d="M 0,0 -0.301,131.398 -22.399,84.216 -4.415,108.568 -6.479,1.016 Z"
             style="fill:#cf3400;fill-opacity:1;fill-rule:evenodd;stroke:none"
             id="path1399" />
        </g>
        <g
           id="g1401"
           transform="translate(834.8193,212.9561)">
          <path
             d="M 0,0 7.448,12.242 9.623,-6.845 6.278,6.584 0.398,-4.607 Z"
             style="fill:#cf3400;fill-opacity:1;fill-rule:evenodd;stroke:none"
             id="path1403" />
        </g>
        <g
           id="g1405"
           transform="translate(835.3057,168.6445)">
          <path
             d="M 0,0 -9.126,17.381 -14.468,-9.716 -8.134,9.344 -1.108,-6.54 Z"
             style="fill:#cf3400;fill-opacity:1;fill-rule:evenodd;stroke:none"
             id="path1407" />
        </g>
        <g
           id="g1409"
           transform="translate(866.6445,104.3779)">
          <path
             d="M 0,0 1.468,153.067 52.047,91.33 8.063,132.669 13.691,-2.333 Z"
             style="fill:#cf3400;fill-opacity:1;fill-rule:evenodd;stroke:none"
             id="path1411" />
        </g>
        <g
           id="g1413"
           transform="translate(874.9082,161.1191)">
          <path
             d="M 0,0 10.444,25.851 20.17,-9.602 9.904,14.697 2.106,-8.602 Z"
             style="fill:#cf3400;fill-opacity:1;fill-rule:evenodd;stroke:none"
             id="path1415" />
        </g>
        <g
           id="g1417"
           transform="translate(870.9687,222.2598)">
          <path
             d="m 0,0 -13.333,21.417 -5.222,-38.239 7.096,27.536 10.438,-19.898 z"
             style="fill:#cf3400;fill-opacity:1;fill-rule:evenodd;stroke:none"
             id="path1419" />
        </g>
        <g
           id="g1421"
           transform="translate(905.7354,134.9092)">
          <path
             d="M 0,0 V 159.87 L -13.704,109.116 -5.078,124.851 -5.585,2.537 Z"
             style="fill:#cf3400;fill-opacity:1;fill-rule:evenodd;stroke:none"
             id="path1423" />
        </g>
        <g
           id="g1425"
           transform="translate(902.4336,226.5186)">
          <path
             d="M 0,0 11.674,23.6 20.05,-13.196 10.659,12.686 1.776,-8.884 Z"
             style="fill:#cf3400;fill-opacity:1;fill-rule:evenodd;stroke:none"
             id="path1427" />
        </g>
        <g
           id="g1429"
           transform="translate(903.1025,192.8086)">
          <path
             d="M 0,0 -6.059,12.249 -10.406,-6.849 -5.53,6.586 -0.923,-4.611 Z"
             style="fill:#cf3400;fill-opacity:1;fill-rule:evenodd;stroke:none"
             id="path1431" />
        </g>
      </g>
    </g>
  </g>
</svg>
